<?xml version="1.0" encoding="iso-8859-1"?>
<!-- Generator: Adobe Illustrator 19.0.0, SVG Export Plug-In . SVG Version: 6.00 Build 0)  -->
<svg version="1.1" id="Layer_1" xmlns="http://www.w3.org/2000/svg" xmlns:xlink="http://www.w3.org/1999/xlink" x="0px" y="0px"
	 viewBox="0 0 512.262 512.262" style="enable-background:new 0 0 512.262 512.262;" xml:space="preserve">
<g>
	<g>
		<path style="fill:#6CA1E9;" d="M506.025,106.328l-1.276-1.276c-8.515-8.515-22.321-8.515-30.837,0l-46.888,47.391
			c-5.866,5.919-15.36,6.135-21.477,0.485l-65.761-60.703c-4.707-4.348-10.887-6.764-17.3-6.764h-97.819l-82.728,78.543
			c-8.444,8.452-9.791,22.456-1.644,31.196c8.938,9.584,23.687,9.189,32.139-0.045l61.215-64.781h44.912L125.86,301.041H62.875
			c-14.588,0-26.947,10.357-26.947,26.947c0,15.638,11.587,26.947,26.947,26.947h98.915l70.925-75.704l63.811,66.722l-17.174,91.657
			c-3.018,12.674,2.803,26.328,14.686,31.654c15.989,7.168,33.639-2.147,37.421-18.333l27.944-131.925l-80.95-80.842l71.967-71.86
			l47.652,47.652c8.408,8.408,22.043,8.408,30.451,0l20.705-20.705l56.787-56.787C514.343,128.146,514.343,114.655,506.025,106.328"
			/>
		<path style="fill:#6CA1E9;" d="M458.214,49.535c0-24.801-20.112-44.912-44.912-44.912c-24.801,0-44.912,20.112-44.912,44.912
			s20.112,44.912,44.912,44.912C438.102,94.447,458.214,74.335,458.214,49.535"/>
	</g>
	<g>
		<path style="fill:#BE3A2B;" d="M224.561,507.64h134.737c19.842,0,35.93-16.088,35.93-35.93l0,0c0-7.33-8.39-11.722-14.228-7.294
			c-6.027,4.581-13.546,7.294-21.702,7.294H224.561c-4.958,0-8.982,4.024-8.982,8.982v17.965
			C215.579,503.616,219.603,507.64,224.561,507.64"/>
		<path style="fill:#BE3A2B;" d="M0,247.149v134.737c0,19.842,16.088,35.93,35.93,35.93l0,0c7.33,0,11.722-8.39,7.294-14.228
			c-4.581-6.027-7.294-13.546-7.294-21.702V247.149c0-4.958-4.024-8.982-8.982-8.982H8.982C4.024,238.166,0,242.19,0,247.149"/>
	</g>
</g>
<g>
</g>
<g>
</g>
<g>
</g>
<g>
</g>
<g>
</g>
<g>
</g>
<g>
</g>
<g>
</g>
<g>
</g>
<g>
</g>
<g>
</g>
<g>
</g>
<g>
</g>
<g>
</g>
<g>
</g>
</svg>
