<?xml version="1.0" encoding="utf-8"?>
<!-- Svg Vector Icons : http://www.onlinewebfonts.com/icon -->
<!DOCTYPE svg PUBLIC "-//W3C//DTD SVG 1.1//EN" "http://www.w3.org/Graphics/SVG/1.1/DTD/svg11.dtd">
<svg version="1.1" xmlns="http://www.w3.org/2000/svg" xmlns:xlink="http://www.w3.org/1999/xlink" x="0px" y="0px" viewBox="0 0 1000 1000" enable-background="new 0 0 1000 1000" xml:space="preserve">
<metadata> Svg Vector Icons : http://www.onlinewebfonts.com/icon </metadata>
<g><g transform="translate(0.000000,511.000000) scale(0.100000,-0.100000)"><path d="M5496.6,4132.5c-31.2-4.5-131.6-20.1-223-33.4c-91.4-11.2-280.9-53.5-419.2-89.2C3556.8,3671,2486.6,2672.1,2065.2,1412.4c-87-256.4-87-325.5-11.1-385.7c55.7-44.6,87-46.8,599.8-46.8c624.3,0,593.1-11.2,693.4,223c590.8,1366.7,2200.6,2026.7,3567.3,1460.4c370.1-153.8,651-345.6,936.4-639.9c515-532.9,775.9-1172.8,775.9-1913c0-760.3-267.6-1398-809.4-1942c-405.8-403.6-813.8-628.8-1395.7-762.5c-196.2-46.8-258.7-46.8-3228.5-60.2c-2965.4-11.2-3030-11.2-3061.2-53.5c-49-66.9-37.9-176.2,20.1-231.9l51.3-49.1h1545.1h1545.1l124.8-98.1c283.2-216.3,660-428.1,1014.5-568.6c842.8-334.4,1868.4-354.5,2744.6-55.7c1369,468.2,2372.3,1618.7,2668.8,3063.5c46.8,225.2,53.5,316.6,53.5,758.1c0,434.8-6.7,535.1-51.3,753.6c-390.2,1930.8-2053.5,3295.3-3995.4,3277.5C5688.3,4141.4,5527.8,4137,5496.6,4132.5z M6466.4,3755.7c789.3-129.3,1444.8-466,2017.8-1036.8c312.1-309.9,510.6-586.4,700.1-969.9c523.9-1054.6,523.9-2222.9,0-3277.5c-751.4-1513.9-2439.2-2332.1-4077.9-1973.2c-379,84.7-827.2,260.9-1114.8,441.5l-109.2,69.1l1212.9,8.9c1152.7,8.9,1226.3,11.1,1415.8,55.7c644.4,156.1,1112.6,412.5,1549.6,851.7c450.4,450.4,720.2,952,860.6,1605.3c58,265.3,58,894.1,2.2,1157.2c-138.2,648.8-412.5,1159.4-862.9,1607.5c-575.2,577.5-1259.7,876.2-2073.5,905.2c-762.5,29-1458.1-200.7-2057.9-684.5c-338.9-272-671.1-686.7-840.6-1050.1l-71.3-151.6h-312.1h-309.9l15.6,51.3c40.1,127.1,194,454.8,287.6,613.1c171.7,287.6,314.4,468.2,599.8,753.6c599.8,597.5,1375.7,967.6,2214,1056.8C5759.6,3813.7,6205.6,3798.1,6466.4,3755.7z"/><path d="M5287,464.9c-153.8-35.7-363.4-151.6-495-272c-158.3-142.7-256.4-294.3-325.5-497.2c-26.7-84.7-53.5-158.3-55.7-162.8c-2.2-4.5-55.7,35.7-115.9,89.2c-229.7,198.4-488.3,325.5-793.7,392.4c-265.3,58-1295.4,15.6-2820.4-115.9c-445.9-37.9-486-46.8-539.6-93.6c-58-51.3-53.5-189.5,6.7-243c55.7-51.3,53.5-51.3,789.3,11.2c976.6,82.5,1578.5,118.2,2040.1,122.6c443.7,2.2,461.5,0,619.8-58c91.4-33.4,218.5-91.4,285.4-131.5c156.1-95.9,365.6-309.9,466-477.1c82.5-138.2,167.2-376.8,167.2-470.4v-53.5H2352.8c-2133.7,0-2162.7,0-2207.3-44.6c-62.4-62.4-58-180.6,6.7-240.8l51.3-49.1h3339.9c2133.7,0,3353.3,8.9,3380.1,22.3c64.7,35.7,93.6,149.4,55.7,223c-42.4,82.5-66.9,89.2-336.7,89.2c-127.1,0-231.9,4.5-231.9,11.2c0,6.7,35.7,58,82.5,115.9c269.8,352.3,307.7,856.2,93.7,1257.5c-140.5,260.8-432.6,490.5-722.4,566.3C5721.7,491.6,5425.2,496.1,5287,464.9z M5810.9,110.4C6285.8-39,6515.5-563,6303.7-1013.3c-236.3-499.4-876.3-628.7-1282-258.7c-388,354.5-361.2,956.5,55.7,1264.2C5291.4,148.3,5554.5,190.6,5810.9,110.4z"/></g></g>
</svg>